<svg xmlns="http://www.w3.org/2000/svg" width="354.775" height="81.11" viewBox="0 0 354.775 81.11">
  <defs>
    <style>
      .cls-1 {
        fill: #fff;
      }
    </style>
  </defs>
  <g id="Boeing_full_logo" transform="translate(-1.199 -0.61)">
    <path id="Tracé_2389" data-name="Tracé 2389" class="cls-1" d="M55.189,49.89A28.333,28.333,0,0,0,45.165,14.316C49.706,9.65,54.624,5.025,59.813.61a127.647,127.647,0,0,0-17.18,12.241A28.333,28.333,0,0,0,8.043,56.44C2.623,68.179,1.765,77.6,6.453,80.776c5.127,3.411,16.259-2.783,23.018-12.848,0,0-10.337,9.312-16.008,7.178-3.495-1.318-3.495-6.675-.628-14.334A28.333,28.333,0,0,0,49.5,58.093l1,1.883c12.346-1,49.2-1.988,49.2-1.988C99.614,56.251,75.215,57.925,55.189,49.89ZM4.59,37.941A24.943,24.943,0,0,1,39.85,15.258,135.849,135.849,0,0,0,9.7,53.071,24.818,24.818,0,0,1,4.59,37.941ZM29.513,62.864a24.818,24.818,0,0,1-15.422-5.336C19.029,46.4,29.073,31.454,42.78,16.848a24.922,24.922,0,0,1,9.27,31.7,45.534,45.534,0,0,1-11.844-7.722l7.512,14.1a24.839,24.839,0,0,1-18.205,7.931Z" transform="translate(0 0)"/>
    <path id="Tracé_2390" data-name="Tracé 2390" class="cls-1" d="M129.152,26.355l4.6-6.131H117.685l3.955-5.252h16.092l4.625-6.131h-32.1L88.18,38.136h32.1l4.6-6.131H108.813l4.248-5.65Z" transform="translate(95.032 8.992)"/>
    <path id="Tracé_2391" data-name="Tracé 2391" class="cls-1" d="M129.937,8.84l-22.077,29.3h16.029l22.056-29.3Z" transform="translate(116.534 8.992)"/>
    <path id="Tracé_2392" data-name="Tracé 2392" class="cls-1" d="M169.607,8.84,158.412,23.7,154.98,8.84H142.467l-22.077,29.3h10.588l11.091-14.711,3.411,14.711h12.639L180.2,8.84Z" transform="translate(130.224 8.992)"/>
    <path id="Tracé_2393" data-name="Tracé 2393" class="cls-1" d="M195.348,8.862H169.61a13.455,13.455,0,0,0-10.777,5.378L145.545,31.88a3.871,3.871,0,0,0-.8,2.365,3.934,3.934,0,0,0,3.913,3.934H174.4A13.476,13.476,0,0,0,185.2,32.8l3.2-4.185h3.725l4.646-6.278H177.059L170.782,30.6a3.5,3.5,0,0,1-2.8,1.4h-4.541a1.025,1.025,0,0,1-1.025-1.025.963.963,0,0,1,.209-.607l10.463-14.02a3.474,3.474,0,0,1,2.8-1.4h4.541a1.025,1.025,0,0,1,1.025,1.025,1.068,1.068,0,0,1-.209.607l-1.716,2.281h15.987l2.825-3.767A3.913,3.913,0,0,0,195.2,8.82Z" transform="translate(156.838 8.97)"/>
    <path id="Tracé_2394" data-name="Tracé 2394" class="cls-1" d="M120.911,12.763A3.913,3.913,0,0,0,117,8.85H91.26a13.476,13.476,0,0,0-10.8,5.378L67.174,31.868a3.934,3.934,0,0,0,3.139,6.278H96.052a13.476,13.476,0,0,0,10.8-5.378l13.288-17.64A3.892,3.892,0,0,0,120.911,12.763ZM103.02,16.593l-10.463,14a3.474,3.474,0,0,1-2.8,1.4H85.129a1.025,1.025,0,0,1-.816-1.632l10.463-14.02a3.536,3.536,0,0,1,2.8-1.4h4.541a1.025,1.025,0,0,1,1.025,1.025,1.067,1.067,0,0,1-.209.607Z" transform="translate(71.236 9.003)"/>
    <path id="Tracé_2395" data-name="Tracé 2395" class="cls-1" d="M87.983,24.2a13.455,13.455,0,0,0,7.784-5.043l3.055-4.039A3.913,3.913,0,0,0,95.683,8.84H63.207L41.13,38.136H74.737a13.476,13.476,0,0,0,10.8-5.378l3.118-4.185a3.076,3.076,0,0,0,.628-1.883A3.16,3.16,0,0,0,88,24.158ZM73.125,28.008l-1.988,2.637a3.5,3.5,0,0,1-2.8,1.4h-6.55l4.185-5.65h6.278a1.025,1.025,0,0,1,1.025,1.025.984.984,0,0,1-.209.607ZM81.7,16.624,80.01,18.863a3.516,3.516,0,0,1-2.8,1.381h-6.55l3.955-5.252h6.278a1.025,1.025,0,0,1,1.025,1.025A1.067,1.067,0,0,1,81.7,16.624Z" transform="translate(43.627 8.992)"/>
  </g>
</svg>
