<svg id="SpaceX-Logo.wine" xmlns="http://www.w3.org/2000/svg" width="397.5" height="48.6" viewBox="0 0 397.5 48.6">
  <defs>
    <style>
      .cls-1 {
        fill: #fff;
      }
    </style>
  </defs>
  <path id="Tracé_2387" data-name="Tracé 2387" class="cls-1" d="M36,29.8H9.4V23.2H43.7c-.9-2.8-3.8-5.4-8.9-5.4H9.9c-5.7,0-9,2.1-9,6.7v4.9c0,4,3.4,6.3,8.4,6.3H36.2v7H0c.9,3.8,3.8,5.8,9,5.8H36.1c5.7,0,8.5-2.2,8.5-6.9V36.7c0-4.3-3.3-6.6-8.6-6.9ZM90.3,17.9H57.5V48.6h9.3V36.8H91c6.7,0,10.4-2.3,10.4-7.7V25.7c-.1-5-4.3-7.8-11.1-7.8Zm3,9.8c0,2.2-.4,3.4-4,3.4H66.8l.1-8h22c4,0,4.5,1.2,4.5,3.3v1.3Zm39,8.9H112.5l-4.9,5.2h28.6l4.9,6.8h11l-23.7-32-5.6,6.9Zm37.6-13.4h34.8c-.9-3.6-4.4-5.4-9.4-5.4h-26c-4.5,0-8.8,1.8-8.8,6.7V41.7c0,4.9,4.3,6.7,8.8,6.7h26.3c6,0,8.1-1.7,9.1-5.8H169.9Zm75.6,10.2V28.2H217.4V48.6h41.5V42.8H226.8V33.4ZM218.4,17.9h41.9v5.4H218.4Zm67.7,0H271.5l17.2,12.6c2.5-1.7,5.4-3.5,8-5Zm21.2,15.7c-2.5,1.7-5,3.6-7.4,5.4l13,9.5h14.7Z"/>
  <path id="Tracé_2388" data-name="Tracé 2388" class="cls-1" d="M397.5,0c-80,4.6-117,38.8-125.3,46.9l-1.7,1.6h14.8C325.3,8.4,382.8,1.3,397.5,0Z"/>
</svg>
