<svg xmlns="http://www.w3.org/2000/svg" width="2458.883" height="832.901" viewBox="0 0 2458.883 832.901">
  <g id="starship" transform="translate(195.641 -259.733)">
    <g id="Groupe_1" data-name="Groupe 1" transform="translate(-122.5 -6)">
      <g id="Tracé_1" data-name="Tracé 1" transform="translate(167 304.083)" fill="#121823">
        <path d="M -197.9565734863281 786.9754028320313 L 2.596787214279175 712.9526977539063 C 5.829912185668945 712.1051635742188 96.89865875244141 686.3836059570313 121.670539855957 593.3614501953125 C 138.2330322265625 531.1661376953125 140.0905303955078 448.7529907226563 141.8871002197266 369.0536193847656 C 143.9549102783203 277.3176879882813 146.0930328369141 182.4586334228516 171.5464782714844 126.595817565918 C 239.8277282714844 -23.25949859619141 301.4630432128906 -30.85012245178223 313.1252136230469 -30.85012245178223 C 314.8936767578125 -30.85012245178223 315.9674072265625 -30.70449829101563 316.2542724609375 -30.65231132507324 L 317.6924133300781 -30.38949775695801 L 319.2355346679688 -30.66449737548828 C 319.4245910644531 -30.69668579101563 320.5564880371094 -30.85012245178223 322.4270935058594 -30.85012245178223 C 334.4183349609375 -30.85012245178223 397.6949157714844 -23.25949859619141 465.9761657714844 126.595817565918 C 495.7577209472656 191.9564361572266 497.6236572265625 291.8239440917969 499.4283447265625 388.4030151367188 C 500.8174133300781 462.7476806640625 502.2539672851563 539.6236572265625 516.86865234375 598.4786376953125 C 534.60302734375 669.8955078125 613.4677124023438 696.1470947265625 646.5517578125 704.11865234375 C 673.4740600585938 710.6055908203125 1516.556274414063 758.4474487304688 1957.42578125 783.1231689453125 L -197.9565734863281 786.9754028320313 Z" stroke="none"/>
        <path d="M 313.1248779296875 -23.35009765625 C 302.268310546875 -23.35009765625 244.7486572265625 -15.9710693359375 178.3712158203125 129.7055053710938 C 153.55615234375 184.1670532226563 151.435546875 278.2439270019531 149.3848876953125 369.2229919433594 C 147.57861328125 449.3627014160156 145.7105712890625 532.2308349609375 128.917724609375 595.2914428710938 C 103.9200439453125 689.1624145507813 14.30517578125 717.4038696289063 4.6441650390625 720.1917724609375 L -155.771728515625 779.3999633789063 L 1698.4990234375 776.0858764648438 C 1246.390625 750.5132446289063 667.7916259765625 716.950927734375 644.794921875 711.4098510742188 C 610.3804931640625 703.11767578125 528.3143310546875 675.6898803710938 509.5899658203125 600.2861328125 C 494.7708740234375 540.6095581054688 493.326416015625 463.3033142089844 491.9295654296875 388.5423889160156 C 490.1392822265625 292.7276916503906 488.2880859375 193.651123046875 459.1514892578125 129.7055053710938 C 392.771484375 -15.9766845703125 333.613037109375 -23.35107421875 322.4283447265625 -23.35009765625 C 321.5865478515625 -23.35009765625 320.96337890625 -23.31280517578125 320.79443359375 -23.31280517578125 C 320.7542724609375 -23.31280517578125 320.73974609375 -23.31488037109375 320.7540283203125 -23.32012939453125 L 317.6595458984375 -22.86419677734375 L 315.028076171875 -23.2535400390625 C 314.711181640625 -23.3004150390625 314.0655517578125 -23.35009765625 313.1248779296875 -23.35009765625 M 313.125 -38.35009765625 C 316.11376953125 -38.35009765625 317.71337890625 -38.008544921875 317.71337890625 -38.008544921875 C 317.71337890625 -38.008544921875 319.3616943359375 -38.349853515625 322.4268798828125 -38.35009765625 C 339.9864501953125 -38.35162353515625 404.15869140625 -27.1619873046875 472.8011474609375 123.4861450195313 C 526.65869140625 241.6861267089844 491.023681640625 463.2792663574219 524.147705078125 596.671142578125 C 540.5283203125 662.6364135742188 612.8299560546875 688.2786254882813 648.3087158203125 696.827392578125 C 683.787353515625 705.3757934570313 2218.74169921875 790.1561279296875 2218.74169921875 790.1561279296875 L -240.14111328125 794.5508422851563 L -0.0001220703125 705.916748046875 C -0.0001220703125 705.916748046875 90.4783935546875 681.3473510742188 114.4227294921875 591.4314575195313 C 150.0889892578125 457.4992370605469 116.58837890625 229.1230163574219 164.721435546875 123.4861450195313 C 233.3590087890625 -27.15118408203125 296.01171875 -38.35009765625 313.125 -38.35009765625 Z" stroke="none" fill="#1b2434"/>
      </g>
      <line id="Ligne_1" data-name="Ligne 1" x2="251" transform="translate(360.5 392.5)" fill="none" stroke="#1b2434" stroke-linecap="round" stroke-width="15"/>
      <line id="Ligne_2" data-name="Ligne 2" x2="360" transform="translate(308.5 802.5)" fill="none" stroke="#1b2434" stroke-linecap="round" stroke-width="15"/>
    </g>
    <g id="Groupe_5" data-name="Groupe 5">
      <rect id="Rectangle_1" data-name="Rectangle 1" width="37" height="49" rx="9" transform="translate(258 422)" fill="#243044"/>
      <rect id="Rectangle_2" data-name="Rectangle 2" width="37" height="49" rx="9" transform="translate(306 422)" fill="#243044"/>
      <rect id="Rectangle_3" data-name="Rectangle 3" width="37" height="49" rx="9" transform="translate(234 483)" fill="#243044"/>
      <rect id="Rectangle_8" data-name="Rectangle 8" width="37" height="49" rx="9" transform="translate(234 543)" fill="#3c49fe"/>
      <rect id="Rectangle_11" data-name="Rectangle 11" width="37" height="49" rx="9" transform="translate(210 603)" fill="#1b2434"/>
      <rect id="Rectangle_4" data-name="Rectangle 4" width="37" height="49" rx="9" transform="translate(282 483)" fill="#243044"/>
      <rect id="Rectangle_7" data-name="Rectangle 7" width="37" height="49" rx="9" transform="translate(282 543)" fill="#243044"/>
      <rect id="Rectangle_10" data-name="Rectangle 10" width="37" height="49" rx="9" transform="translate(258 603)" fill="#1b2434"/>
      <rect id="Rectangle_9" data-name="Rectangle 9" width="37" height="49" rx="9" transform="translate(306 603)" fill="#243044"/>
      <rect id="Rectangle_13" data-name="Rectangle 13" width="37" height="49" rx="9" transform="translate(210 663)" fill="#1b2434"/>
      <rect id="Rectangle_14" data-name="Rectangle 14" width="37" height="49" rx="9" transform="translate(258 723)" fill="#1b2434"/>
      <rect id="Rectangle_15" data-name="Rectangle 15" width="37" height="49" rx="9" transform="translate(210 723)" fill="#1b2434"/>
      <rect id="Rectangle_16" data-name="Rectangle 16" width="37" height="49" rx="9" transform="translate(258 664)" fill="#243044"/>
      <rect id="Rectangle_17" data-name="Rectangle 17" width="37" height="49" rx="9" transform="translate(306 663)" fill="#1b2434"/>
      <rect id="Rectangle_19" data-name="Rectangle 19" width="37" height="49" rx="9" transform="translate(306 724)" fill="#1b2434"/>
      <rect id="Rectangle_20" data-name="Rectangle 20" width="37" height="49" rx="9" transform="translate(433 422)" fill="#243044"/>
      <rect id="Rectangle_21" data-name="Rectangle 21" width="37" height="49" rx="9" transform="translate(385 422)" fill="#243044"/>
      <rect id="Rectangle_22" data-name="Rectangle 22" width="37" height="49" rx="9" transform="translate(457 483)" fill="#1b2434"/>
      <rect id="Rectangle_23" data-name="Rectangle 23" width="37" height="49" rx="9" transform="translate(457 543)" fill="#1b2434"/>
      <rect id="Rectangle_24" data-name="Rectangle 24" width="37" height="49" rx="9" transform="translate(481 603)" fill="#1b2434"/>
      <rect id="Rectangle_25" data-name="Rectangle 25" width="37" height="49" rx="9" transform="translate(409 483)" fill="#243044"/>
      <rect id="Rectangle_26" data-name="Rectangle 26" width="37" height="49" rx="9" transform="translate(409 543)" fill="#243044"/>
      <rect id="Rectangle_27" data-name="Rectangle 27" width="37" height="49" rx="9" transform="translate(433 603)" fill="#1b2434"/>
      <rect id="Rectangle_28" data-name="Rectangle 28" width="37" height="49" rx="9" transform="translate(385 603)" fill="#243044"/>
      <rect id="Rectangle_29" data-name="Rectangle 29" width="37" height="49" rx="9" transform="translate(481 663)" fill="#1b2434"/>
      <rect id="Rectangle_30" data-name="Rectangle 30" width="37" height="49" rx="9" transform="translate(433 723)" fill="#1b2434"/>
      <rect id="Rectangle_31" data-name="Rectangle 31" width="37" height="49" rx="9" transform="translate(481 723)" fill="#1b2434"/>
      <rect id="Rectangle_32" data-name="Rectangle 32" width="37" height="49" rx="9" transform="translate(433 664)" fill="#243044"/>
      <rect id="Rectangle_33" data-name="Rectangle 33" width="37" height="49" rx="9" transform="translate(385 663)" fill="#1b2434"/>
      <rect id="Rectangle_34" data-name="Rectangle 34" width="37" height="49" rx="9" transform="translate(385 724)" fill="#1b2434"/>
    </g>
  </g>
</svg>
